# xmcd
#
# Track frame offsets: 
#        150
#        24738
#        49688
#        75190
#        97008
#        122968
#        142958
#        161853
#        188468
#        215958
#
# Disc length: 3171 seconds
#
# Revision: 0
# Processed by: cddbd v1.5.2PL0 Copyright (c) Steve Scherf et al.
# Submitted via: ExactAudioCopy v1.0b3
#
DISCID=870c610a
DTITLE=Phuong Lam, Huong Lan - Long Me 2
DYEAR=1993
DGENRE=
TTITLE0=Phuong Lam - Dem tan ben Ngu
TTITLE1=Phuong Lam - Long Me 2
TTITLE2=Giac mo tuyet voi
TTITLE3=Phuong Lam - Bong mat
TTITLE4=Phuong Lam - Noi lai tinh xua
TTITLE5=Phuong Lam - Mua buon tinh le
TTITLE6=Phuong Lam - Vay tay chao
TTITLE7=Chuyen buon ngay Xuan
TTITLE8=Phuong Lam - Tieng xua
TTITLE9=Phuong Lam - Xin yeu toi bang tinh nguoi
EXTD=
EXTT0=
EXTT1=
EXTT2=
EXTT3=
EXTT4=
EXTT5=
EXTT6=
EXTT7=
EXTT8=
EXTT9=
PLAYORDER=
